<svg width="20" height="20" viewBox="0 0 20 20" fill="none" xmlns="http://www.w3.org/2000/svg">
<path d="M8.66667 2C4.99266 2 2 4.99267 2 8.66667C2 12.3407 4.99266 15.3333 8.66667 15.3333C10.2643 15.3333 11.7316 14.766 12.8815 13.8242L16.862 17.8047C16.9234 17.8687 16.997 17.9198 17.0784 17.9549C17.1598 17.9901 17.2474 18.0087 17.3361 18.0096C17.4248 18.0105 17.5128 17.9937 17.5949 17.9602C17.6771 17.9267 17.7517 17.8771 17.8144 17.8144C17.8771 17.7517 17.9267 17.6771 17.9602 17.5949C17.9937 17.5128 18.0105 17.4248 18.0096 17.3361C18.0087 17.2474 17.9901 17.1598 17.9549 17.0784C17.9198 16.997 17.8687 16.9234 17.8047 16.862L13.8242 12.8815C14.766 11.7316 15.3333 10.2643 15.3333 8.66667C15.3333 4.99267 12.3407 2 8.66667 2ZM8.66667 3.33333C11.6201 3.33333 14 5.71325 14 8.66667C14 11.6201 11.6201 14 8.66667 14C5.71325 14 3.33333 11.6201 3.33333 8.66667C3.33333 5.71325 5.71325 3.33333 8.66667 3.33333ZM10.6602 5.99089C10.4843 5.99504 10.3172 6.06852 10.1953 6.19531L8.66667 7.72396L7.13802 6.19531C7.07589 6.13145 7.0016 6.08069 6.91952 6.04602C6.83744 6.01136 6.74925 5.99349 6.66016 5.99349C6.52753 5.99352 6.39794 6.03311 6.28793 6.10719C6.17792 6.18126 6.09251 6.28646 6.0426 6.40934C5.9927 6.53221 5.98057 6.66718 6.00777 6.79698C6.03498 6.92678 6.10027 7.04552 6.19531 7.13802L7.72396 8.66667L6.19531 10.1953C6.13133 10.2567 6.08025 10.3303 6.04506 10.4117C6.00987 10.4932 5.99128 10.5808 5.99037 10.6695C5.98947 10.7582 6.00628 10.8462 6.0398 10.9283C6.07333 11.0104 6.1229 11.085 6.18562 11.1477C6.24834 11.2104 6.32294 11.26 6.40506 11.2935C6.48718 11.3271 6.57516 11.3439 6.66386 11.343C6.75255 11.3421 6.84017 11.3235 6.92159 11.2883C7.00301 11.2531 7.07659 11.202 7.13802 11.138L8.66667 9.60937L10.1953 11.138C10.2567 11.202 10.3303 11.2531 10.4117 11.2883C10.4932 11.3235 10.5808 11.3421 10.6695 11.343C10.7582 11.3439 10.8462 11.3271 10.9283 11.2935C11.0104 11.26 11.085 11.2104 11.1477 11.1477C11.2104 11.085 11.26 11.0104 11.2935 10.9283C11.3271 10.8462 11.3439 10.7582 11.343 10.6695C11.3421 10.5808 11.3235 10.4932 11.2883 10.4117C11.2531 10.3303 11.202 10.2567 11.138 10.1953L9.60937 8.66667L11.138 7.13802C11.2348 7.04492 11.3013 6.92475 11.3286 6.79324C11.356 6.66174 11.343 6.52504 11.2914 6.40105C11.2397 6.27706 11.1518 6.17156 11.0392 6.09837C10.9265 6.02518 10.7944 5.98772 10.6602 5.99089Z" fill="white"/>
</svg>
