<svg width="40" height="32" viewBox="0 0 40 32" fill="none" xmlns="http://www.w3.org/2000/svg">
<path d="M18.6071 6.25V9.73214L20 11.125V7.64286H24.875V11.125H28.3571V20.1786H22.7857V21.5714H29.75V10.1348L29.5949 9.94978L26.2488 6.41595L26.0747 6.25H18.6071ZM26.4066 8.274L27.8348 9.78655H26.4066V8.274ZM10.25 10.4286V25.75H21.3929V14.3133L21.2378 14.1283L17.9107 10.4286H10.25ZM11.6429 11.8214H16.5179V15.3036H20V24.3571H11.6429V11.8214ZM18.0495 12.4526L19.4777 13.9651H18.0495V12.4526ZM22.7857 13.2143V14.6071H26.9643V13.2143H22.7857ZM22.7857 16V17.3929H26.9643V16H22.7857ZM13.0357 17.3929V18.7857H18.6071V17.3929H13.0357ZM13.0357 20.1786V21.5714H18.6071V20.1786H13.0357Z" fill="white"/>
</svg>
